<?xml version="1.0" standalone="no"?>
<!DOCTYPE svg PUBLIC "-//W3C//DTD SVG 1.1//EN" "http://www.w3.org/Graphics/SVG/1.1/DTD/svg11.dtd" >
<svg>
<metadata>
Created by FontForge 20090622 at Fri Feb 22 04:58:58 2019
 By ffonts
Home Planet BB is copyright Nate Piekos.
</metadata>
<defs>
<font id="HomePlanetBB-Regular" horiz-adv-x="380" >
  <font-face 
    font-family="Home Planet BB"
    font-weight="400"
    font-stretch="normal"
    units-per-em="1000"
    panose-1="0 0 0 0 0 0 0 0 0 0"
    ascent="800"
    descent="-200"
    x-height="541"
    cap-height="745"
    bbox="-59 -205 700 995"
    underline-thickness="50"
    underline-position="-75"
    stemh="39"
    stemv="27"
    unicode-range="U+0020-U+2212"
  />
<missing-glyph horiz-adv-x="516" 
d="M458 746v-746h-400v746h400zM153 696v-638h209v638h-209z" />
    <glyph glyph-name="copyright" unicode="&#x28;C&#x29;" horiz-adv-x="580" 
d="M483 131v486c0 49 -40 90 -90 90h-204c-51 0 -92 -41 -92 -90v-486c0 -51 41 -92 92 -92h204c50 0 90 41 90 92zM187 746h206c71 0 129 -58 129 -129v-488c0 -71 -58 -128 -129 -128h-206c-71 0 -129 57 -129 128v488c0 71 58 129 129 129zM422 517v-35h-37v35
c0 49 -41 90 -90 90h-8c-49 0 -90 -41 -90 -90v-286c0 -50 41 -90 90 -90h8c49 0 90 40 90 90v33h37v-33c0 -71 -56 -129 -127 -129h-8c-71 0 -129 58 -129 129v286c0 71 58 127 129 127h8c71 0 127 -56 127 -127z" />
    <glyph glyph-name="registered" unicode="&#x28;R&#x29;" horiz-adv-x="579" 
d="M482 131v486c0 49 -41 90 -90 90h-205c-51 0 -91 -41 -91 -90v-486c0 -51 40 -92 91 -92h205c49 0 90 41 90 92zM383 485v10c0 49 -41 90 -90 90h-96v-190h96c49 0 90 40 90 90zM187 746h205c71 0 129 -58 129 -129v-488c0 -71 -58 -129 -129 -129h-205
c-72 0 -129 58 -129 129v488c0 71 57 129 129 129zM157 123v501h136c71 0 129 -58 129 -129v-10c0 -47 -24 -87 -62 -109c38 -23 62 -64 62 -110v-143h-39v143c0 49 -41 90 -90 90h-97v-233h-39z" />
    <glyph glyph-name="onehalf" unicode="&#x31;&#x2f;&#x32;" horiz-adv-x="480" 
d="M99 0h-41l274 746h42zM361 165c-41 -47 -52 -104 -52 -145h113v-20h-133v20c0 31 0 95 58 158c30 33 55 72 55 109v22c0 26 -20 45 -45 45h-3c-25 0 -45 -19 -45 -45v-22h-19v22c0 36 28 65 64 65h3c36 0 65 -29 65 -65v-23c0 -49 -40 -97 -61 -121zM68 747h48v-368h-19
v349h-29v19z" />
    <glyph glyph-name="onequarter" unicode="&#x31;&#x2f;&#x34;" horiz-adv-x="434" 
d="M328 116h-94l92 257h22v-238h28v-19h-28v-116h-20v116zM328 322l-67 -187h67v187zM99 0h-41l274 746h42zM68 747h48v-368h-19v349h-29v19z" />
    <glyph glyph-name="threequarters" unicode="&#x33;&#x2f;&#x34;" horiz-adv-x="459" 
d="M190 684v-67c0 -24 -12 -44 -31 -55c19 -12 31 -32 31 -56v-67c0 -36 -29 -65 -64 -65h-3c-37 0 -65 29 -65 65v25h19v-25c0 -25 20 -46 46 -46h3c24 0 45 21 45 46v67c0 25 -21 45 -45 45h-34v20h34c24 0 45 20 45 46v67c0 25 -21 45 -45 45h-3c-26 0 -46 -20 -46 -45
v-23h-19v23c0 36 28 65 65 65h3c35 0 64 -29 64 -65zM353 116h-95l93 257h22v-238h28v-19h-28v-116h-20v116zM353 322l-67 -187h67v187zM123 0h-40l274 746h42z" />
    <glyph glyph-name=".notdef" horiz-adv-x="516" 
d="M458 746v-746h-400v746h400zM153 696v-638h209v638h-209z" />
    <glyph glyph-name="A" unicode="A" horiz-adv-x="416" 
d="M282 245l-74 469l-73 -469h147zM242 746l116 -746h-37l-34 206h-158l-32 -206h-39l118 746h66z" />
    <glyph glyph-name="B" unicode="B" horiz-adv-x="382" 
d="M284 128v132c0 49 -40 93 -90 93h-95v-315h95c50 0 90 40 90 90zM284 483v132c0 50 -40 90 -90 90h-95v-313h95c50 0 90 42 90 91zM324 615v-130c0 -50 -27 -90 -66 -114c39 -21 66 -63 66 -111v-131c0 -71 -58 -129 -130 -129h-136v744h136c72 0 130 -58 130 -129z" />
    <glyph glyph-name="C" unicode="C" 
d="M322 559h-39v58c0 49 -41 90 -90 90h-6c-51 0 -91 -41 -91 -90v-488c0 -49 40 -90 91 -90h6c49 0 90 41 90 90v58h39v-58c0 -71 -58 -129 -129 -129h-6c-71 0 -129 58 -129 129v488c0 71 58 129 129 129h6c71 0 129 -58 129 -129v-58z" />
    <glyph glyph-name="D" unicode="D" horiz-adv-x="382" 
d="M194 746c72 0 130 -58 130 -129v-488c0 -71 -58 -129 -130 -129h-136v746h136zM284 129v488c0 49 -40 90 -90 90h-95v-668h95c50 0 90 41 90 90z" />
    <glyph glyph-name="E" unicode="E" horiz-adv-x="352" 
d="M308 707h-212v-315h159v-38h-159v-315h212v-39h-250v746h250v-39z" />
    <glyph glyph-name="F" unicode="F" horiz-adv-x="366" 
d="M329 707h-232v-315h182v-38h-182v-354h-39v746h271v-39z" />
    <glyph glyph-name="G" unicode="G" 
d="M322 392v-392h-136c-71 0 -128 58 -128 129v488c0 71 57 129 128 129h7c71 0 129 -58 129 -129v-58h-39v58c0 49 -41 90 -90 90h-7c-50 0 -90 -41 -90 -90v-488c0 -49 40 -90 90 -90h97v315h-103v38h142z" />
    <glyph glyph-name="H" unicode="H" horiz-adv-x="391" 
d="M294 745h39v-745h-39v353h-197v-353h-39v745h39v-353h197v353z" />
    <glyph glyph-name="I" unicode="I" horiz-adv-x="155" 
d="M97 745v-745h-39v745h39z" />
    <glyph glyph-name="J" unicode="J" horiz-adv-x="366" 
d="M269 746h39v-615c0 -73 -58 -130 -129 -130h-6c-71 0 -129 57 -129 130v56h38v-56c0 -51 40 -92 91 -92h6c49 0 90 41 90 92v615z" />
    <glyph glyph-name="K" unicode="K" horiz-adv-x="369" 
d="M333 746l-199 -375l199 -371h-42l-193 361v-361h-40v746h40v-363l193 363h42z" />
    <glyph glyph-name="L" unicode="L" horiz-adv-x="366" 
d="M97 746v-707h211v-39h-250v746h39z" />
    <glyph glyph-name="M" unicode="M" horiz-adv-x="527" 
d="M424 744h45v-744h-39v620l-157 -520h-19l-157 520v-620h-39v744h45l161 -544z" />
    <glyph glyph-name="N" unicode="N" horiz-adv-x="390" 
d="M332 746v-746h-39l-197 640v-640h-38v746h45l190 -618v618h39z" />
    <glyph glyph-name="O" unicode="O" 
d="M193 746c71 0 129 -58 129 -129v-488c0 -71 -58 -129 -129 -129h-6c-71 0 -129 58 -129 129v488c0 71 58 129 129 129h6zM283 131v486c0 49 -41 90 -90 90h-6c-51 0 -91 -41 -91 -90v-486c0 -51 40 -92 91 -92h6c49 0 90 41 90 92z" />
    <glyph glyph-name="P" unicode="P" horiz-adv-x="382" 
d="M284 483v132c0 50 -40 90 -90 90h-95v-312h95c50 0 90 41 90 90zM58 0v744h136c72 0 130 -58 130 -129v-132c0 -71 -58 -127 -130 -127h-97v-356h-39z" />
    <glyph glyph-name="Q" unicode="Q" horiz-adv-x="385" 
d="M341 -64h-44l-46 77c-17 -9 -36 -13 -58 -13h-6c-71 0 -129 57 -129 129v486c0 71 58 129 129 129h6c71 0 129 -58 129 -129v-486c0 -38 -16 -71 -40 -94zM193 38c15 0 26 3 38 8l-67 114h44l53 -90c15 16 22 36 22 59v486c0 50 -39 90 -90 90h-6c-51 0 -90 -40 -90 -90
v-486c0 -51 39 -91 90 -91h6z" />
    <glyph glyph-name="R" unicode="R" 
d="M284 483v132c0 50 -40 90 -91 90h-96v-312h96c51 0 91 41 91 90zM322 615v-132c0 -46 -25 -87 -61 -109c36 -23 61 -63 61 -110v-264h-38v264c0 49 -40 90 -91 90h-97v-354h-38v744h135c71 0 129 -58 129 -129z" />
    <glyph glyph-name="grave" unicode="`" horiz-adv-x="268" 
d="M211 773l-152 51v39l152 -50v-40z" />
    <glyph glyph-name="acute" unicode="&#xb4;" horiz-adv-x="268" 
d="M210 824l-152 -51v40l152 50v-39z" />
    <glyph glyph-name="macron" unicode="&#xaf;" horiz-adv-x="385" 
d="M326 800h-268v37h268v-37z" />
    <glyph glyph-name="S" unicode="S" 
d="M58 129v58h38v-58c0 -49 40 -90 91 -90h6c49 0 90 41 90 90v134c0 50 -41 91 -90 91h-7c-71 0 -128 58 -128 129v134c0 71 58 129 129 129h6c71 0 129 -58 129 -129v-58h-39v58c0 49 -41 90 -90 90h-6c-51 0 -91 -41 -91 -90v-134c0 -51 40 -91 91 -91h6
c71 0 129 -58 129 -129v-134c0 -71 -58 -129 -129 -129h-6c-71 0 -129 58 -129 129z" />
    <glyph glyph-name="at" unicode="@" horiz-adv-x="580" 
d="M299 363h-13c-48 0 -91 -29 -90 -76v-58c0 -50 41 -91 91 -91s96 41 96 91v156c-21 -18 -50 -22 -84 -22zM187 38h153v-38h-153c-71 0 -129 58 -129 129v487c0 71 58 129 129 129h206c71 0 129 -58 129 -129v-546l-1 -13c-6 -32 -35 -57 -68 -57c-39 0 -70 31 -70 70v67
c-27 -26 -59 -37 -96 -37c-72 0 -129 57 -129 129v58c0 74 62 114 128 114c40 0 97 4 97 57v57c0 49 -41 90 -90 90c-51 0 -97 -41 -97 -90v-59h-38v59c0 71 64 129 135 129s129 -58 129 -129v-436s-3 -40 29 -40c34 0 32 40 32 40v537c0 49 -40 89 -90 89h-206
c-49 0 -90 -40 -90 -89v-487c0 -50 41 -91 90 -91z" />
    <glyph glyph-name="T" unicode="T" horiz-adv-x="319" 
d="M283 746v-39h-103v-707h-39v707h-105v39h247z" />
    <glyph glyph-name="U" unicode="U" horiz-adv-x="382" 
d="M284 746h40v-617c0 -71 -58 -129 -130 -129h-7c-71 0 -129 58 -129 129v617h39v-617c0 -49 41 -90 90 -90h7c50 0 90 41 90 90v617z" />
    <glyph glyph-name="V" unicode="V" horiz-adv-x="374" 
d="M299 746h39l-127 -746h-48l-127 746h39l112 -661z" />
    <glyph glyph-name="W" unicode="W" horiz-adv-x="598" 
d="M523 745h39l-134 -745h-42l-87 562l-87 -562h-43l-133 745h39l115 -623l99 623h20l99 -624z" />
    <glyph glyph-name="X" unicode="X" horiz-adv-x="358" 
d="M322 746l-122 -373l122 -373h-43l-100 309l-101 -309h-42l122 373l-122 373h42l101 -309l100 309h43z" />
    <glyph glyph-name="Y" unicode="Y" horiz-adv-x="394" 
d="M357 746l-140 -489v-257h-38v257l-143 489h42l119 -417l119 417h41z" />
    <glyph glyph-name="Z" unicode="Z" horiz-adv-x="379" 
d="M321 746l-209 -707h202v-39h-256l209 707h-204v39h258z" />
    <glyph glyph-name="hyphen" unicode="-" horiz-adv-x="348" 
d="M290 354h-232v38h232v-38z" />
    <glyph glyph-name="asciitilde" unicode="~" horiz-adv-x="386" 
d="M58 354v38c19 17 38 23 57 23c52 0 104 -45 156 -45c19 0 38 6 57 22v-38c-19 -17 -38 -23 -57 -23c-52 0 -104 45 -156 45c-19 0 -38 -6 -57 -22z" />
    <glyph glyph-name="ogonek" unicode="&#x2db;" horiz-adv-x="227" 
d="M179 -94v-37c-45 0 -111 10 -111 68c0 42 39 86 44 92l28 -25c-13 -14 -35 -45 -35 -67c0 -30 54 -31 74 -31z" />
    <glyph glyph-name="cedilla" unicode="&#xb8;" horiz-adv-x="261" 
d="M126 -119h-68v37h65c6 0 25 1 35 10c5 6 8 13 8 23c0 40 -69 53 -69 53l6 37c5 -1 100 -19 100 -90c0 -45 -34 -70 -77 -70z" />
    <glyph glyph-name="period" unicode="." horiz-adv-x="168" 
d="M110 30v-7c0 -13 -10 -22 -23 -22h-6c-13 0 -23 9 -23 22v7c0 14 10 22 23 22h6c13 0 23 -8 23 -22z" />
    <glyph glyph-name="a" unicode="a" horiz-adv-x="384" 
d="M199 263h-13c-48 0 -91 -29 -90 -76v-58c0 -50 41 -91 91 -91c49 0 96 41 96 91v156c-21 -18 -50 -22 -84 -22zM187 0c-72 0 -129 57 -129 129v58c0 74 62 114 128 114c40 0 97 4 97 57v57c0 49 -41 90 -90 90c-51 0 -97 -41 -97 -90v-59h-38v59c0 71 64 129 135 129
s129 -58 129 -129v-286c1 -41 4 -82 18 -130h-39c-4 14 -7 29 -10 46c-28 -32 -63 -45 -104 -45z" />
    <glyph glyph-name="b" unicode="b" horiz-adv-x="385" 
d="M288 128v285c0 50 -41 91 -90 91h-7c-50 0 -90 -41 -90 -91v-285c0 -50 40 -90 90 -90h7c49 0 90 40 90 90zM191 542h7c71 0 129 -57 129 -129v-285c0 -71 -58 -129 -129 -129h-7c-39 0 -74 18 -98 45c-3 -17 -6 -31 -10 -45h-39c16 54 18 101 18 147v600h39v-241
c23 23 55 37 90 37z" />
    <glyph glyph-name="c" unicode="c" 
d="M322 414v-35h-38v35c0 49 -40 90 -91 90h-6c-49 0 -90 -41 -90 -90v-286c0 -50 41 -90 90 -90h6c51 0 91 40 91 90v35h38v-35c0 -71 -58 -129 -129 -129h-6c-71 0 -129 58 -129 129v286c0 71 58 129 129 129h6c71 0 129 -58 129 -129z" />
    <glyph glyph-name="e" unicode="e" 
d="M192 505h-5c-51 0 -92 -33 -92 -91v-114h187v114c0 50 -40 91 -90 91zM322 414v-153h-227v-132c0 -51 41 -91 92 -91h5c50 0 90 40 90 91v34h40v-34c0 -71 -58 -129 -130 -129h-5c-71 0 -129 58 -129 129v285c0 71 58 129 129 129h5c72 0 130 -58 130 -129z" />
    <glyph glyph-name="d" unicode="d" horiz-adv-x="385" 
d="M283 128v287c0 49 -41 89 -90 89h-6c-51 0 -91 -41 -91 -90v-286c0 -50 40 -90 91 -90h6c49 0 90 40 90 90zM341 0h-39c-5 13 -7 26 -10 44c-25 -27 -60 -44 -99 -44h-6c-71 0 -129 58 -129 129v285c0 71 58 129 129 129h6c36 0 68 -15 91 -37v240h38v-620
c2 -40 4 -81 19 -126z" />
    <glyph glyph-name="f" unicode="f" horiz-adv-x="330" 
d="M162 617v-74h124v-39h-124v-504h-37v504h-67v39h67v74c0 71 56 129 129 129c11 0 21 -1 32 -3v-41c-12 4 -21 5 -34 5c-49 0 -90 -41 -90 -90z" />
    <glyph glyph-name="i" unicode="i" horiz-adv-x="168" 
d="M65 1v542h39l-1 -542h-38zM81 660h7c12 0 22 -11 22 -23v-7c0 -13 -10 -23 -22 -23h-7c-13 0 -23 10 -23 23v7c0 12 10 23 23 23z" />
    <glyph glyph-name="j" unicode="j" horiz-adv-x="168" 
d="M65 -75v618h39v-618c0 -72 -58 -130 -129 -130c-12 0 -22 1 -34 3v41c12 -4 22 -4 34 -4c49 0 90 40 90 90zM88 661h-7c-13 0 -23 -10 -23 -22v-7c0 -13 10 -24 23 -24h7c12 0 22 11 22 24v7c0 12 -10 22 -22 22z" />
    <glyph glyph-name="g" unicode="g" horiz-adv-x="384" 
d="M283 126v288c0 49 -40 90 -90 90h-6c-50 0 -91 -41 -91 -90v-286c0 -50 41 -90 91 -90h6c50 0 90 39 90 88zM322 414v-488c0 -73 -58 -129 -129 -129h-6c-71 0 -129 56 -129 129v33h38v-33c0 -51 41 -91 91 -91h6c50 0 90 40 90 91v110c-23 -23 -55 -37 -90 -37h-6
c-71 0 -129 58 -129 129v286c0 71 58 129 129 129h6c39 0 74 -18 97 -45c3 17 8 30 12 45h38c-12 -42 -18 -86 -18 -129z" />
    <glyph glyph-name="h" unicode="h" 
d="M322 414v-414h-38v414c0 50 -40 91 -91 91h-6c-49 0 -88 -41 -90 -89v-416h-39v746h39v-240c23 22 55 37 90 37h6c71 0 129 -58 129 -129z" />
    <glyph glyph-name="k" unicode="k" horiz-adv-x="366" 
d="M322 543l-186 -272l186 -271h-48l-178 261v-261h-38v746h38v-464l178 261h48z" />
    <glyph glyph-name="l" unicode="l" horiz-adv-x="171" 
d="M113 0h-38c-10 30 -17 67 -17 145v601h38v-601c0 -45 3 -91 17 -145z" />
    <glyph glyph-name="m" unicode="m" horiz-adv-x="608" 
d="M550 414v-414h-37v414c0 49 -41 90 -92 90h-6c-49 0 -88 -40 -89 -90v-414h-40v414c0 50 -40 90 -90 90h-5c-51 0 -92 -43 -92 -92v-412h-38v414c0 42 -5 87 -17 127h38c4 -13 7 -26 11 -43c24 27 58 45 98 45h5c47 0 87 -25 111 -61c21 36 62 61 108 61h6
c73 0 129 -58 129 -129z" />
    <glyph glyph-name="n" unicode="n" horiz-adv-x="384" 
d="M326 414v-414h-39v414c0 49 -41 90 -90 90h-6c-51 0 -92 -41 -92 -90v-414h-37v414c0 42 -6 87 -18 127h38c4 -13 7 -26 12 -43c23 27 58 45 97 45h6c71 0 129 -58 129 -129z" />
    <glyph glyph-name="o" unicode="o" 
d="M194 543c71 0 128 -58 128 -129v-286c0 -71 -57 -129 -128 -129h-7c-71 0 -129 58 -129 129v286c0 71 58 129 129 129h7zM284 128v286c0 49 -40 90 -90 90h-7c-49 0 -90 -41 -90 -90v-286c0 -50 41 -90 90 -90h7c50 0 90 40 90 90z" />
    <glyph glyph-name="p" unicode="p" horiz-adv-x="385" 
d="M288 128v284c0 51 -41 92 -90 92h-7c-50 0 -90 -41 -90 -92v-287c1 -48 42 -89 90 -89h7c49 0 90 41 90 92zM191 541h7c71 0 129 -58 129 -129v-284c0 -71 -58 -129 -129 -129h-7c-35 0 -67 13 -90 36v-240h-38v620c-2 41 -4 81 -19 126h39c5 -13 7 -26 10 -45
c25 28 60 45 98 45z" />
    <glyph glyph-name="q" unicode="q" horiz-adv-x="384" 
d="M187 36h6c49 0 90 41 91 89v287c0 51 -40 92 -91 92h-6c-49 0 -90 -41 -90 -92v-284c0 -51 41 -92 90 -92zM415 -167v-38c-77 0 -131 58 -131 130v110c-23 -23 -55 -36 -91 -36h-6c-71 0 -129 58 -129 129v284c0 71 58 129 129 129h6c39 0 74 -17 99 -45c3 19 5 32 10 45
h39c-15 -45 -17 -85 -19 -129v-487c0 -51 42 -92 93 -92z" />
    <glyph glyph-name="r" unicode="r" horiz-adv-x="331" 
d="M288 517v-56c-16 25 -44 43 -76 43h-7c-49 0 -90 -43 -90 -90v-414h-39v414c0 43 -6 87 -18 129h40c2 -15 7 -28 10 -45c23 27 58 45 97 45h7c28 0 55 -10 76 -26z" />
    <glyph glyph-name="s" unicode="s" 
d="M322 386h-38v27c0 50 -41 90 -91 90h-6c-50 0 -90 -40 -90 -90v-26c-1 -58 30 -96 80 -96h28c71 -1 117 -59 117 -129v-32c0 -72 -57 -130 -129 -130h-6c-71 0 -129 58 -129 130v37h39v-37c0 -50 40 -91 90 -91h6c50 0 91 41 91 91v32c0 50 -31 90 -81 90h-28
c-70 1 -117 58 -117 129v32c0 71 58 129 129 129h6c72 0 129 -58 129 -129v-27z" />
    <glyph glyph-name="v" unicode="v" horiz-adv-x="371" 
d="M287 543h40l-122 -543h-41l-120 543h37l103 -460z" />
    <glyph glyph-name="u" unicode="u" horiz-adv-x="385" 
d="M341 0h-39c-3 13 -7 26 -10 44c-23 -28 -58 -45 -97 -45h-7c-72 0 -130 58 -130 129v413h40v-413c0 -50 40 -90 90 -90h7c49 0 90 40 90 90v413h39v-413c0 -42 4 -83 17 -128z" />
    <glyph glyph-name="t" unicode="t" horiz-adv-x="331" 
d="M150 543h123v-39h-123v-376c0 -50 41 -90 90 -90c12 0 22 0 33 4v-41c-11 -1 -22 -1 -33 -1c-71 0 -129 57 -129 128v376h-67v39h67v117h39v-117z" />
    <glyph glyph-name="w" unicode="w" horiz-adv-x="536" 
d="M453 543h39l-102 -543h-40l-83 403l-81 -403h-41l-101 543h39l82 -443l93 443h19l93 -443z" />
    <glyph glyph-name="z" unicode="z" horiz-adv-x="362" 
d="M318 543l-215 -504h202v-39h-261l214 504h-204v39h264z" />
    <glyph glyph-name="y" unicode="y" horiz-adv-x="378" 
d="M295 543h40l-125 -618c-19 -82 -82 -125 -153 -128v38c53 0 102 42 114 90l5 30l-132 588h39l112 -495z" />
    <glyph glyph-name="x" unicode="x" horiz-adv-x="364" 
d="M320 543l-116 -272l116 -271h-44l-94 221l-94 -221h-44l116 271l-116 272h44l94 -221l94 221h44z" />
    <glyph glyph-name="quotedblleft" unicode="&#x201c;" horiz-adv-x="302" 
d="M58 746l41 -205h39l-42 205h-38zM244 541h-38l-42 205h39z" />
    <glyph glyph-name="quotedblright" unicode="&#x201d;" horiz-adv-x="302" 
d="M99 746l-41 -205h38l42 205h-39zM205 746h39l-42 -205h-38z" />
    <glyph glyph-name="question" unicode="?" 
d="M216 30v-7c0 -13 -10 -23 -23 -23h-7c-12 0 -22 10 -22 23v7c0 12 10 22 22 22h7c13 0 23 -10 23 -22zM187 747h6c71 0 129 -58 129 -129v-59c-3 -82 -32 -131 -61 -177c-46 -76 -52 -163 -52 -221h-38c0 36 1 147 58 241c27 44 53 86 54 157v59c0 50 -41 90 -90 90h-6
c-51 0 -91 -40 -91 -90v-46h-38v46c0 71 58 129 129 129z" />
    <glyph glyph-name="exclam" unicode="!" horiz-adv-x="168" 
d="M103 163h-39v583h39v-583zM87 53h-7c-12 0 -22 -10 -22 -23v-7c0 -12 10 -22 22 -22h7c13 0 23 10 23 22v7c0 13 -10 23 -23 23z" />
    <glyph glyph-name="quotedbl" unicode="&#x22;" horiz-adv-x="261" 
d="M58 746v-204h38l1 204h-39zM164 746h39v-204h-39v204z" />
    <glyph glyph-name="comma" unicode="," horiz-adv-x="196" 
d="M100 123h38l-41 -204h-39z" />
    <glyph glyph-name="braceleft" unicode="{" horiz-adv-x="345" 
d="M126 374c37 -23 61 -63 61 -110v-196c0 -49 41 -90 92 -90h5l3 -39h-8c-71 0 -130 58 -130 129v196c0 49 -40 90 -91 90v39c51 0 91 41 91 90v195c0 71 59 129 130 129h5l3 -39h-8c-51 0 -92 -41 -92 -90v-195c0 -46 -24 -87 -61 -109z" />
    <glyph glyph-name="braceright" unicode="}" horiz-adv-x="344" 
d="M158 483v23h-1v172c0 49 -39 90 -90 90h-6l-3 37l9 2c71 0 129 -58 129 -129v-195c0 -49 41 -90 90 -90v-39c-49 0 -90 -41 -90 -90v-196c0 -71 -58 -129 -129 -129h-6l-3 39h9c51 0 90 41 90 90v182h1v14c0 47 25 87 61 110c-36 22 -61 63 -61 109z" />
    <glyph glyph-name="less" unicode="&#x3c;" horiz-adv-x="369" 
d="M268 746h42l-210 -376l210 -370h-42l-210 370z" />
    <glyph glyph-name="greater" unicode="&#x3e;" horiz-adv-x="367" 
d="M58 746h41l210 -376l-210 -370h-41l209 370z" />
    <glyph glyph-name="bracketleft" unicode="[" horiz-adv-x="244" 
d="M96 -44h90v-37h-128v908h128v-39h-90v-832z" />
    <glyph glyph-name="bracketright" unicode="]" horiz-adv-x="245" 
d="M58 -44h90v832h-90v39h129v-910h-129v39z" />
    <glyph glyph-name="backslash" unicode="\" horiz-adv-x="432" 
d="M58 746h42l274 -746h-40z" />
    <glyph glyph-name="parenright" unicode=")" horiz-adv-x="294" 
d="M58 826h46c88 -138 132 -296 132 -453c0 -158 -44 -316 -132 -454h-46c93 137 139 295 139 454c0 158 -46 316 -139 453z" />
    <glyph glyph-name="parenleft" unicode="(" horiz-adv-x="294" 
d="M236 826c-92 -137 -139 -295 -139 -453c0 -159 47 -317 139 -454h-46c-88 138 -132 296 -132 454c0 157 44 315 132 453h46z" />
    <glyph glyph-name="degree" unicode="&#xb0;" 
d="M193 747c72 0 129 -58 129 -129v-183c0 -72 -57 -129 -129 -129h-6c-71 0 -129 57 -129 129v183c0 71 58 129 129 129h6zM284 435v183c0 50 -41 91 -91 91h-6c-50 0 -90 -41 -90 -91v-183c0 -50 40 -91 90 -91h6c50 0 91 41 91 91z" />
    <glyph glyph-name="slash" unicode="/" horiz-adv-x="387" 
d="M75 0h-40l274 746h42z" />
    <glyph glyph-name="percent" unicode="%" horiz-adv-x="650" 
d="M554 131v182c0 51 -40 92 -90 92h-7c-49 0 -90 -41 -90 -92v-182c0 -51 41 -92 90 -92h7c50 0 90 41 90 92zM283 435v183c0 50 -41 90 -90 90h-6c-51 0 -91 -40 -91 -90v-183c0 -50 40 -91 91 -91h6c49 0 90 41 90 91zM457 443h7c71 0 128 -58 128 -130v-182
c0 -72 -57 -130 -128 -130h-7c-71 0 -129 58 -129 130v182c0 6 1 12 1 18l-121 -331h-43l135 363c-23 -35 -62 -57 -107 -57h-7c-71 0 -128 57 -128 129v183c0 71 57 129 128 129h7c71 0 129 -58 129 -129v-183c0 -5 -1 -11 -1 -16l120 327h42l-133 -363c21 36 62 60 107 60
z" />
    <glyph glyph-name="bar" unicode="|" horiz-adv-x="154" 
d="M58 -81v908h38v-908h-38z" />
    <glyph glyph-name="ampersand" unicode="&#x26;" horiz-adv-x="432" 
d="M187 39h7c47 0 85 35 90 80l-148 250c-23 -16 -39 -44 -39 -74v-166c0 -49 41 -90 90 -90zM399 0h-45c0 1 -17 32 -43 74c-21 -44 -66 -74 -117 -74h-7c-71 0 -128 58 -128 129v166c0 46 24 85 59 108c-32 58 -60 101 -60 172v42c0 71 58 129 129 129h7
c72 0 128 -58 128 -129v-45h-38v45c0 51 -40 91 -90 91h-7c-49 0 -90 -40 -90 -91v-38c6 -80 23 -95 55 -158l132 -228v218h87v-40h-47v-242c40 -71 75 -128 75 -129z" />
    <glyph glyph-name="one" unicode="1" horiz-adv-x="208" 
d="M39 744h97v-744h-39v707h-58v37z" />
    <glyph glyph-name="two" unicode="2" horiz-adv-x="382" 
d="M202 332c-90 -101 -103 -212 -105 -293h227v-39h-266v39c0 63 4 193 116 319c58 66 110 141 110 218v44c0 49 -40 90 -90 90h-7c-49 0 -90 -41 -90 -90v-47h-38v47c0 71 57 129 128 129h7c72 0 130 -58 130 -129v-48c0 -100 -89 -202 -122 -240z" />
    <glyph glyph-name="three" unicode="3" 
d="M322 620v-135c0 -47 -25 -87 -62 -111c37 -23 62 -63 62 -110v-135c0 -71 -58 -129 -129 -129h-6c-72 0 -129 58 -129 129v49h38v-49c0 -51 40 -91 91 -91h6c49 0 90 40 90 91v135c0 49 -41 90 -90 90h-67v39h67c49 0 90 41 90 92v135c0 49 -41 90 -90 90h-6
c-51 0 -91 -41 -91 -90v-47h-38v47c0 71 57 129 129 129h6c71 0 129 -58 129 -129z" />
    <glyph glyph-name="four" unicode="4" horiz-adv-x="356" 
d="M90 271h135v373zM264 0h-39v232h-189l186 514h42v-475h55v-39h-55v-232z" />
    <glyph glyph-name="five" unicode="5" 
d="M322 708h-225v-315h76c43 0 55 -1 88 -19c36 -23 61 -63 61 -110v-135c0 -71 -58 -129 -129 -129h-6c-71 0 -129 58 -129 129v49h39v-49c0 -51 41 -91 90 -91h6c51 0 91 40 91 91v135c0 49 -40 90 -91 90h-135v392h264v-38z" />
    <glyph glyph-name="six" unicode="6" 
d="M284 128v139c0 51 -40 91 -90 91h-7c-49 0 -90 -40 -90 -91v-139c0 -50 41 -90 90 -90h7c50 0 90 40 90 90zM187 398h6c73 0 129 -58 129 -130v-139c0 -71 -56 -129 -129 -129h-6c-71 0 -129 58 -129 129v491c0 71 58 129 129 129h6c73 0 129 -58 129 -129v-50h-38v50
c0 49 -40 90 -91 90h-6c-49 0 -90 -41 -90 -90v-260c23 23 55 38 90 38z" />
    <glyph glyph-name="seven" unicode="7" horiz-adv-x="363" 
d="M36 744h290l-204 -744h-41l193 705h-238v39z" />
    <glyph glyph-name="eight" unicode="8" 
d="M283 129v137c0 49 -41 90 -90 90h-6c-51 0 -91 -41 -91 -90v-137c0 -49 40 -90 91 -90h6c49 0 90 41 90 90zM283 485v136c0 49 -41 90 -90 90h-6c-51 0 -91 -41 -91 -90v-136c0 -50 40 -90 91 -90h6c49 0 90 40 90 90zM187 749h7c72 0 128 -58 128 -129v-135
c0 -47 -25 -87 -61 -111c36 -23 61 -63 61 -110v-135c0 -71 -56 -129 -128 -129h-7c-71 0 -129 58 -129 129v135c0 47 25 87 62 110c-37 24 -62 64 -62 111v135c0 71 58 129 129 129z" />
    <glyph glyph-name="nine" unicode="9" horiz-adv-x="365" 
d="M80 620v-140c0 -49 40 -90 90 -90h6c51 0 90 41 90 90v140c0 49 -39 90 -90 90h-6c-50 0 -90 -41 -90 -90zM178 351h-8c-71 0 -129 58 -129 129v140c0 71 58 129 129 129h8c71 0 129 -58 129 -129v-491c0 -71 -58 -129 -129 -129h-8c-71 0 -129 58 -129 129v49h39v-49
c0 -49 41 -90 90 -90h8c49 0 90 41 90 90v260c-24 -23 -55 -38 -90 -38z" />
    <glyph glyph-name="quotesingle" unicode="'" horiz-adv-x="155" 
d="M58 542v204h39l-1 -204h-38z" />
    <glyph glyph-name="numbersign" unicode="#" horiz-adv-x="588" 
d="M363 289l17 145h-143l-19 -145h145zM174 250h-116v39h122l17 145h-139v38h145l35 274h38l-35 -274h145l35 274h39l-35 -274h105v-38h-111l-17 -145h128v-39h-134l-32 -250h-39l32 250h-144l-32 -250h-39z" />
    <glyph glyph-name="dollar" unicode="$" 
d="M283 129v134c0 45 -32 82 -74 90v-312c42 7 74 44 74 88zM96 617v-134c0 -45 32 -82 75 -90v312c-43 -7 -75 -44 -75 -88zM209 1v-82h-38v82c-63 8 -113 62 -113 128v58h38v-58c0 -44 32 -81 75 -88v314c-64 7 -113 62 -113 128v134c0 65 50 120 113 128v82h38v-82
c64 -8 113 -63 113 -128v-58h-39v58c0 44 -32 81 -74 88v-314c64 -8 113 -63 113 -128v-134c0 -66 -49 -120 -113 -128z" />
    <glyph glyph-name="plus" unicode="+" horiz-adv-x="441" 
d="M241 354v-149h-39v149h-144v38h145v138h38v-138h142v-38h-142z" />
    <glyph glyph-name="asterisk" unicode="*" horiz-adv-x="483" 
d="M134 727l31 19l77 -131l76 131l33 -20l-77 -131h151v-38h-149l75 -127l-33 -21l-76 131l-77 -131l-33 19l74 129h-148v38h151z" />
    <glyph glyph-name="zero" unicode="0" 
d="M193 746c71 0 129 -58 129 -129v-488c0 -71 -58 -129 -129 -129h-6c-71 0 -129 58 -129 129v488c0 71 58 129 129 129h6zM283 131v486c0 49 -41 90 -90 90h-6c-51 0 -91 -41 -91 -90v-486c0 -51 40 -92 91 -92h6c49 0 90 41 90 92z" />
    <glyph glyph-name="colon" unicode=":" horiz-adv-x="168" 
d="M110 199v-7c0 -14 -10 -22 -23 -22h-7c-12 0 -22 8 -22 22v7c0 13 10 22 22 22h7c13 0 23 -9 23 -22zM110 376v-7c0 -13 -10 -22 -23 -22h-7c-12 0 -22 9 -22 22v7c0 13 10 22 22 22h7c13 0 23 -9 23 -22z" />
    <glyph glyph-name="semicolon" unicode=";" horiz-adv-x="203" 
d="M145 237v-8c0 -13 -10 -21 -23 -21h-7c-12 0 -22 8 -22 21v8c0 13 10 21 22 21h7c13 0 23 -8 23 -21zM100 123h38l-41 -204h-39z" />
    <glyph glyph-name="equal" unicode="=" horiz-adv-x="396" 
d="M338 412h-280v38h280v-38zM338 296h-280v38h280v-38z" />
    <glyph glyph-name="asciicircum" unicode="^" horiz-adv-x="363" 
d="M181 863l124 -68v-39l-124 68l-123 -68v39z" />
    <glyph glyph-name="underscore" unicode="_" horiz-adv-x="522" 
d="M464 0h-406v38h406v-38z" />
    <glyph glyph-name="minus" unicode="&#x2212;" horiz-adv-x="402" 
d="M232 354h-174v38h174v-38z" />
    <glyph glyph-name="multiply" unicode="&#xd7;" horiz-adv-x="348" 
d="M312 604l-116 -230l116 -230h-44l-94 180l-94 -180h-44l116 230l-116 230h44l94 -179l94 179h44z" />
    <glyph glyph-name="Thorn" unicode="&#xde;" horiz-adv-x="359" 
d="M187 136h8c49 0 90 41 90 90v286c0 50 -41 90 -90 90h-8c-49 0 -89 -40 -89 -90v-286c0 -49 40 -90 89 -90zM187 641h8c71 0 127 -58 127 -129v-286c0 -71 -56 -129 -127 -129h-8c-35 0 -67 15 -90 38v-135h-39v745h39v-141c23 23 55 37 90 37z" />
    <glyph glyph-name="thorn" unicode="&#xfe;" horiz-adv-x="358" 
d="M187 39h7c50 0 90 41 90 90v286c0 49 -40 90 -90 90h-7c-49 0 -90 -41 -90 -90v-286c0 -49 41 -90 90 -90zM187 544h7c72 0 128 -58 128 -129v-286c0 -71 -56 -129 -128 -129h-7c-35 0 -67 15 -90 38v-243h-39v951h39v-240c23 24 55 38 90 38z" />
    <glyph glyph-name="LF" horiz-adv-x="333" 
 />
    <glyph glyph-name="brokenbar" unicode="&#xa6;" horiz-adv-x="154" 
d="M96 827v-411h-38v411h38zM96 334v-415h-38v415h38z" />
    <glyph glyph-name="space" unicode=" " horiz-adv-x="250" 
 />
    <glyph glyph-name="trademark" unicode="&#x2122;" horiz-adv-x="327" 
d="M127 746v-11h-28v-198h-11v198h-30v11h69zM256 746h13v-209h-11v174l-44 -146h-6l-44 146v-174h-11v209h13l45 -153z" />
    <glyph glyph-name="cent" unicode="&#xa2;" horiz-adv-x="351" 
d="M157 39v463c-42 -8 -74 -45 -74 -88v-286c0 -44 32 -81 74 -89zM194 0v-81h-37v81c-64 7 -113 62 -113 128v286c0 65 49 120 113 128v81h37v-81c64 -8 114 -63 114 -128v-35h-38v35c0 44 -32 81 -76 88v-463c44 8 76 45 76 89v35h38v-35c0 -66 -50 -121 -114 -128z" />
    <glyph glyph-name="quoteleft" unicode="&#x2018;" horiz-adv-x="196" 
d="M99 541l-41 205h38l42 -205h-39z" />
    <glyph glyph-name="quoteright" unicode="&#x2019;" horiz-adv-x="196" 
d="M58 541l41 205h39l-42 -205h-38z" />
    <glyph glyph-name="divide" unicode="&#xf7;" horiz-adv-x="384" 
d="M218 280v-7c0 -13 -10 -22 -23 -22h-7c-12 0 -22 9 -22 22v7c0 13 10 22 22 22h7c13 0 23 -9 23 -22zM218 477v-7c0 -13 -10 -22 -23 -22h-7c-12 0 -22 9 -22 22v7c0 13 10 22 22 22h7c13 0 23 -9 23 -22zM326 354h-268v38h268v-38z" />
    <glyph glyph-name="bullet" unicode="&#x2022;" horiz-adv-x="282" 
d="M58 374c0 50 33 83 83 83c49 0 82 -33 82 -83c0 -49 -33 -82 -82 -82c-50 0 -83 33 -83 82z" />
    <glyph glyph-name="section" unicode="&#xa7;" 
d="M183 257h14c48 3 87 42 87 90v33c0 47 -37 86 -82 90h-22c-46 -4 -81 -40 -84 -85v-38c0 -48 39 -87 87 -90zM187 760h6c71 0 129 -58 129 -129v-27h-38v27c0 50 -40 90 -91 90h-6c-49 0 -90 -40 -90 -90v-27c-1 -56 27 -95 84 -95h12c77 0 129 -50 129 -130v-32
c0 -44 -22 -84 -56 -108c34 -21 56 -63 56 -111v-32c0 -71 -58 -129 -129 -129h-6c-71 0 -129 58 -129 129v38h38v-38c0 -50 40 -90 91 -90h6c49 0 90 40 90 90v32c0 59 -33 90 -90 90h-6c-74 0 -129 53 -129 129v38c1 42 23 79 57 103c-35 21 -57 63 -57 111v32
c0 71 58 129 129 129z" />
    <glyph glyph-name="dieresis" unicode="&#xa8;" horiz-adv-x="280" 
d="M110 820v-7c0 -13 -10 -22 -23 -22h-6c-13 0 -23 9 -23 22v7c0 13 10 22 23 22h6c13 0 23 -9 23 -22zM222 820v-7c0 -13 -10 -22 -23 -22h-6c-13 0 -23 9 -23 22v7c0 13 10 22 23 22h6c13 0 23 -9 23 -22z" />
    <glyph glyph-name="onesuperior" unicode="&#xb9;" horiz-adv-x="142" 
d="M36 747h48v-368h-19v349h-29v19z" />
    <glyph glyph-name="threesuperior" unicode="&#xb3;" horiz-adv-x="248" 
d="M190 684v-67c0 -24 -12 -44 -31 -55c19 -12 31 -32 31 -56v-67c0 -36 -29 -65 -64 -65h-3c-37 0 -65 29 -65 65v25h19v-25c0 -25 20 -46 46 -46h3c24 0 45 21 45 46v67c0 25 -21 45 -45 45h-34v20h34c24 0 45 20 45 46v67c0 25 -21 45 -45 45h-3c-26 0 -46 -20 -46 -45
v-23h-19v23c0 36 28 65 65 65h3c35 0 64 -29 64 -65z" />
    <glyph glyph-name="twosuperior" unicode="&#xb2;" horiz-adv-x="249" 
d="M130 541c-45 -51 -52 -106 -52 -147h113v-20h-133v20c0 31 2 97 58 160c29 32 55 70 55 108v22c0 25 -20 45 -45 45h-3c-25 0 -45 -20 -45 -45v-23h-19v23c0 36 28 65 64 65h3c36 0 65 -29 65 -65v-24c0 -50 -44 -101 -61 -119z" />
    <glyph glyph-name="germandbls" unicode="&#xdf;" horiz-adv-x="382" 
d="M58 0v615c0 71 58 129 129 129h7c72 0 130 -58 130 -129v-130c0 -50 -27 -90 -66 -114c39 -21 66 -63 66 -111v-131c0 -71 -58 -129 -130 -129h-34v38h34c50 0 90 40 90 90v132c0 49 -40 93 -90 93h-34v39h34c50 0 90 42 90 91v132c0 50 -40 90 -90 90h-7
c-51 0 -88 -40 -88 -90v-615h-41z" />
    <glyph glyph-name="sterling" unicode="&#xa3;" horiz-adv-x="389" 
d="M292 559v58c0 49 -41 90 -90 90h-6c-28 0 -55 -12 -72 -31c-28 -30 -17 -74 -7 -132l35 -194h86v-39h-86l-46 -272h210v-39h-258l55 311h-49v39h49l-32 186c-10 57 -31 121 17 169c25 25 61 41 98 41h6c71 0 129 -58 129 -129v-58h-39z" />
    <glyph glyph-name="circumflex" unicode="&#x2c6;" horiz-adv-x="363" 
d="M181 863l124 -68v-39l-124 68l-123 -68v39z" />
    <glyph glyph-name="tilde" unicode="&#x2dc;" horiz-adv-x="386" 
d="M58 778v38c19 17 38 23 57 23c52 0 104 -45 156 -45c19 0 38 6 57 22v-38c-19 -18 -38 -23 -57 -23c-52 0 -104 45 -156 45c-19 0 -38 -6 -57 -22z" />
    <glyph glyph-name="ellipsis" unicode="&#x2026;" horiz-adv-x="505" 
d="M110 30v-7c0 -13 -10 -22 -23 -22h-6c-13 0 -23 9 -23 22v7c0 14 10 22 23 22h6c13 0 23 -8 23 -22zM278 30v-7c0 -13 -10 -22 -23 -22h-6c-13 0 -23 9 -23 22v7c0 14 10 22 23 22h6c13 0 23 -8 23 -22zM447 30v-7c0 -13 -10 -22 -23 -22h-6c-13 0 -23 9 -23 22v7
c0 14 10 22 23 22h6c13 0 23 -8 23 -22z" />
    <glyph glyph-name="ordfeminine" unicode="&#xaa;" horiz-adv-x="362" 
d="M188 483h-12c-46 0 -87 -28 -86 -73v-56c0 -47 39 -87 87 -87c47 0 92 40 92 87v150c-20 -17 -48 -21 -81 -21zM177 231c-69 0 -123 54 -123 123v56c0 71 59 109 122 109c38 0 93 5 93 55v54c0 47 -39 87 -86 87c-49 0 -93 -40 -93 -87v-56h-36v56c0 68 61 124 129 124
s124 -56 124 -124v-274c0 -39 3 -78 17 -124h-38c-3 13 -6 28 -9 44c-27 -31 -61 -43 -100 -43z" />
    <glyph glyph-name="ordmasculine" unicode="&#xba;" horiz-adv-x="351" 
d="M180 746c71 0 128 -58 128 -129v-286c0 -71 -57 -129 -128 -129h-7c-71 0 -129 58 -129 129v286c0 71 58 129 129 129h7zM270 331v286c0 49 -41 90 -90 90h-7c-50 0 -90 -41 -90 -90v-286c0 -49 40 -90 90 -90h7c49 0 90 41 90 90z" />
    <glyph glyph-name="Euro" unicode="&#x20ac;" horiz-adv-x="465" 
d="M407 559h-39v58c0 49 -41 90 -90 90h-6c-51 0 -91 -41 -91 -90v-167h157v-38h-157v-78h157v-38h-157v-167c0 -49 40 -90 91 -90h6c49 0 90 41 90 90v58h39v-58c0 -71 -58 -129 -129 -129h-6c-71 0 -129 58 -129 129v167h-85v38h85v78h-85v38h85v167c0 71 58 129 129 129
h6c71 0 129 -58 129 -129v-58z" />
    <glyph glyph-name="dotaccent" unicode="&#x2d9;" horiz-adv-x="168" 
d="M110 820v-7c0 -13 -10 -22 -23 -22h-6c-13 0 -23 9 -23 22v7c0 13 10 22 23 22h6c13 0 23 -9 23 -22z" />
    <glyph glyph-name="ring" unicode="&#x2da;" horiz-adv-x="290" 
d="M147 995c47 0 85 -38 85 -85v-26c0 -47 -38 -84 -85 -84h-3c-49 0 -86 37 -86 84v26c0 47 37 85 86 85h3zM194 888v19c0 28 -21 50 -47 50h-3c-28 0 -49 -22 -49 -50v-19c0 -28 21 -49 49 -49h3c26 0 47 21 47 49z" />
    <glyph glyph-name="breve" unicode="&#x2d8;" horiz-adv-x="290" 
d="M194 895l38 1c0 -52 -27 -96 -85 -96h-3c-59 0 -86 43 -86 96l38 -1c0 -33 14 -55 48 -55h3c33 0 47 26 47 55z" />
    <glyph glyph-name="Aring" unicode="&#xc5;" horiz-adv-x="416" 
d="M282 245l-74 469l-73 -469h147zM207 772h4c26 0 47 21 47 48v20c0 27 -21 50 -47 50h-4c-27 0 -48 -23 -48 -50v-20c0 -27 21 -48 48 -48zM243 739l115 -739h-37l-34 206h-158l-32 -206h-39l116 738c-31 13 -53 43 -53 78v26c0 48 38 86 86 86h4c47 0 84 -38 84 -86v-26
c0 -35 -21 -65 -52 -77z" />
    <glyph glyph-name="ccedilla" unicode="&#xe7;" 
d="M322 379h-38v35c0 49 -40 90 -91 90h-6c-49 0 -90 -41 -90 -90v-286c0 -50 41 -90 90 -90h6c51 0 91 40 91 90v35h38v-35c0 -56 -36 -104 -86 -122c15 -13 27 -32 27 -56c0 -45 -34 -71 -78 -71l-68 1v37h66c24 0 42 7 42 33c0 29 -37 44 -57 50c-62 9 -110 63 -110 128
v286c0 71 58 129 129 129h6c71 0 129 -58 129 -129v-35z" />
    <glyph glyph-name="caron" unicode="&#x2c7;" horiz-adv-x="363" 
d="M182 756l-124 68v40l124 -69l123 69v-40z" />
    <glyph glyph-name="periodcentered" unicode="&#xb7;" horiz-adv-x="168" 
d="M110 301v-7c0 -13 -10 -23 -23 -23h-7c-12 0 -22 10 -22 23v7c0 12 10 22 22 22h7c13 0 23 -10 23 -22z" />
    <glyph glyph-name="quotesinglbase" unicode="&#x201a;" horiz-adv-x="196" 
d="M100 123h38l-41 -204h-39z" />
    <glyph glyph-name="quotedblbase" unicode="&#x201e;" horiz-adv-x="299" 
d="M100 123h38l-41 -204h-39zM203 123h38l-41 -204h-39z" />
    <glyph glyph-name="endash" unicode="&#x2013;" horiz-adv-x="581" 
d="M523 354h-465v38h465v-38z" />
    <glyph glyph-name="emdash" unicode="&#x2014;" horiz-adv-x="758" 
d="M700 354h-642v38h642v-38z" />
    <glyph glyph-name="questiondown" unicode="&#xbf;" 
d="M164 576v-7c0 -12 10 -22 23 -22h7c12 0 22 10 22 22v7c0 13 -10 23 -22 23h-7c-13 0 -23 -10 -23 -23zM193 -98h-6c-71 0 -129 58 -129 129v60c3 81 32 130 61 177c47 75 52 162 52 220h38c0 -36 -1 -148 -58 -241c-27 -45 -52 -85 -54 -156v-60c0 -49 41 -90 90 -90h6
c51 0 91 41 91 90v46h38v-46c0 -71 -58 -129 -129 -129z" />
    <glyph glyph-name="exclamdown" unicode="&#xa1;" horiz-adv-x="168" 
d="M65 485h38v-583h-38v583zM87 547h-7c-12 0 -22 10 -22 22v7c0 13 10 23 22 23h7c13 0 23 -10 23 -23v-7c0 -12 -10 -22 -23 -22z" />
    <glyph glyph-name="ae" unicode="&#xe6;" horiz-adv-x="578" 
d="M269 129v156c-21 -18 -50 -22 -84 -22h-13c-48 0 -91 -29 -90 -76v-58c0 -50 41 -91 91 -91c49 0 96 41 96 91zM405 505h-6c-50 0 -91 -33 -91 -91v-113h187v113c0 51 -40 91 -90 91zM82 415v-59h-38v59c0 71 64 129 135 129c47 0 88 -25 110 -63c23 37 64 62 110 62h6
c71 0 129 -58 129 -129v-152h-226v-132c0 -51 41 -92 91 -92h6c50 0 90 41 90 92v33h39v-33c0 -71 -58 -130 -129 -130h-6c-42 0 -87 24 -110 59c-30 -46 -75 -59 -116 -59c-72 0 -129 57 -129 129v58c0 74 62 114 128 114c40 0 97 4 97 57v57c0 49 -41 90 -90 90
c-51 0 -97 -41 -97 -90z" />
    <glyph glyph-name="AE" unicode="&#xc6;" horiz-adv-x="563" 
d="M270 245l-1 469l-135 -469h136zM307 354v-315h212v-39h-249v206h-147l-62 -206h-39l215 746h282v-39h-212v-315h160v-38h-160z" />
    <glyph glyph-name="Adieresis" unicode="&#xc4;" horiz-adv-x="416" 
d="M208 714l-73 -469h147zM358 0h-37l-34 206h-158l-32 -206h-39l118 746h66zM178 802v-7c0 -13 -10 -22 -23 -22h-6c-13 0 -23 9 -23 22v7c0 13 10 22 23 22h6c13 0 23 -9 23 -22zM290 802v-7c0 -13 -10 -22 -23 -22h-6c-13 0 -23 9 -23 22v7c0 13 10 22 23 22h6
c13 0 23 -9 23 -22z" />
    <glyph glyph-name="Ccedilla" unicode="&#xc7;" 
d="M193 707h-6c-51 0 -91 -41 -91 -90v-488c0 -49 40 -90 91 -90h6c49 0 90 41 90 90v58h39v-58c0 -56 -36 -104 -86 -122c15 -13 27 -31 27 -56c0 -45 -34 -70 -78 -70h-67v37h65c6 0 24 1 34 10c6 6 8 13 8 23c0 30 -37 45 -57 50c-62 10 -110 64 -110 128v488
c0 71 58 129 129 129h6c71 0 129 -58 129 -129v-58h-39v58c0 49 -41 90 -90 90z" />
    <glyph glyph-name="Eacute" unicode="&#xc9;" horiz-adv-x="366" 
d="M308 707h-212v-315h159v-38h-159v-315h212v-39h-250v746h250v-39zM259 834l-152 -51v40l152 50v-39z" />
    <glyph glyph-name="Ntilde" unicode="&#xd1;" horiz-adv-x="390" 
d="M332 746v-746h-39l-197 640v-640h-38v746h45l190 -618v618h39zM60 814v38c19 17 38 23 57 23c52 0 104 -45 156 -45c19 0 38 6 57 22v-38c-19 -18 -38 -23 -57 -23c-52 0 -104 45 -156 45c-19 0 -38 -6 -57 -22z" />
    <glyph glyph-name="Odieresis" unicode="&#xd6;" 
d="M193 746c71 0 129 -58 129 -129v-488c0 -71 -58 -129 -129 -129h-6c-71 0 -129 58 -129 129v488c0 71 58 129 129 129h6zM283 131v486c0 49 -41 90 -90 90h-6c-51 0 -91 -41 -91 -90v-486c0 -51 40 -92 91 -92h6c49 0 90 41 90 92zM160 802v-7c0 -13 -10 -22 -23 -22h-6
c-13 0 -23 9 -23 22v7c0 13 10 22 23 22h6c13 0 23 -9 23 -22zM272 802v-7c0 -13 -10 -22 -23 -22h-6c-13 0 -23 9 -23 22v7c0 13 10 22 23 22h6c13 0 23 -9 23 -22z" />
    <glyph glyph-name="Udieresis" unicode="&#xdc;" horiz-adv-x="382" 
d="M284 746h40v-617c0 -71 -58 -129 -130 -129h-7c-71 0 -129 58 -129 129v617h39v-617c0 -49 41 -90 90 -90h7c50 0 90 41 90 90v617zM161 812v-7c0 -13 -10 -22 -23 -22h-6c-13 0 -23 9 -23 22v7c0 13 10 22 23 22h6c13 0 23 -9 23 -22zM273 812v-7c0 -13 -10 -22 -23 -22
h-6c-13 0 -23 9 -23 22v7c0 13 10 22 23 22h6c13 0 23 -9 23 -22z" />
    <glyph glyph-name="aacute" unicode="&#xe1;" horiz-adv-x="384" 
d="M272 636l-152 -51v40l152 50v-39zM187 0c-72 0 -129 57 -129 129v58c0 77 64 114 134 114c52 0 91 14 91 57v57c0 49 -41 90 -90 90c-51 0 -97 -41 -97 -90v-59h-38v59c0 71 64 129 135 129s129 -58 129 -129v-286c1 -41 4 -82 18 -130h-39c-4 14 -7 29 -10 46
c-28 -32 -63 -45 -104 -45zM186 263c-48 0 -91 -29 -90 -76v-58c0 -50 41 -91 91 -91c49 0 96 41 96 91v156c-21 -18 -50 -22 -84 -22h-13z" />
    <glyph glyph-name="agrave" unicode="&#xe0;" horiz-adv-x="384" 
d="M186 263c-48 0 -91 -29 -90 -76v-58c0 -50 41 -91 91 -91c49 0 96 41 96 91v156c-21 -18 -50 -22 -84 -22h-13zM187 0c-72 0 -129 57 -129 129v58c0 74 62 114 128 114c40 0 97 4 97 57v57c0 49 -41 90 -90 90c-51 0 -97 -41 -97 -90v-59h-38v59c0 71 64 129 135 129
s129 -58 129 -129v-286c1 -41 4 -82 18 -130h-39c-4 14 -7 29 -10 46c-28 -32 -63 -45 -104 -45zM272 616v-40l-152 51v39z" />
    <glyph glyph-name="adieresis" unicode="&#xe4;" horiz-adv-x="384" 
d="M162 626v-7c0 -13 -10 -22 -23 -22h-6c-13 0 -23 9 -23 22v7c0 13 10 22 23 22h6c13 0 23 -9 23 -22zM274 626v-7c0 -13 -10 -22 -23 -22h-6c-13 0 -23 9 -23 22v7c0 13 10 22 23 22h6c13 0 23 -9 23 -22zM187 0c-72 0 -129 57 -129 129v58c0 77 64 114 134 114
c52 0 91 14 91 57v57c0 49 -41 90 -90 90c-51 0 -97 -41 -97 -90v-59h-38v59c0 71 64 129 135 129s129 -58 129 -129v-286c1 -41 4 -82 18 -130h-39c-4 14 -7 29 -10 46c-28 -32 -63 -45 -104 -45zM186 263c-48 0 -91 -29 -90 -76v-58c0 -50 41 -91 91 -91c49 0 96 41 96 91
v156c-21 -18 -50 -22 -84 -22h-13z" />
    <glyph glyph-name="eacute" unicode="&#xe9;" 
d="M192 505h-5c-51 0 -92 -33 -92 -91v-114h187v114c0 50 -40 91 -90 91zM322 261h-227v-132c0 -51 41 -91 92 -91h5c50 0 90 40 90 91v34h40v-34c0 -71 -58 -129 -130 -129h-5c-71 0 -129 58 -129 129v285c0 71 58 129 129 129h5c72 0 130 -58 130 -129v-153zM266 671v-39
l-152 -51v40z" />
    <glyph glyph-name="egrave" unicode="&#xe8;" 
d="M192 505h-5c-51 0 -92 -33 -92 -91v-114h187v114c0 50 -40 91 -90 91zM322 261h-227v-132c0 -51 41 -91 92 -91h5c50 0 90 40 90 91v34h40v-34c0 -71 -58 -129 -130 -129h-5c-71 0 -129 58 -129 129v285c0 71 58 129 129 129h5c72 0 130 -58 130 -129v-153zM266 614v-40
l-152 51v39z" />
    <glyph glyph-name="edieresis" unicode="&#xeb;" 
d="M192 505h-5c-51 0 -92 -33 -92 -91v-114h187v114c0 50 -40 91 -90 91zM322 261h-227v-132c0 -51 41 -91 92 -91h5c50 0 90 40 90 91v34h40v-34c0 -71 -58 -129 -130 -129h-5c-71 0 -129 58 -129 129v285c0 71 58 129 129 129h5c72 0 130 -58 130 -129v-153zM160 613v-7
c0 -13 -10 -22 -23 -22h-6c-13 0 -23 9 -23 22v7c0 13 10 22 23 22h6c13 0 23 -9 23 -22zM272 613v-7c0 -13 -10 -22 -23 -22h-6c-13 0 -23 9 -23 22v7c0 13 10 22 23 22h6c13 0 23 -9 23 -22z" />
    <glyph glyph-name="iacute" unicode="&#xed;" horiz-adv-x="139" 
d="M50 1v542h39v-542h-39zM146 649l-153 -51v39l153 51v-39z" />
    <glyph glyph-name="dotlessi" unicode="&#x131;" horiz-adv-x="139" 
d="M50 1v542h39v-542h-39z" />
    <glyph glyph-name="igrave" unicode="&#xec;" horiz-adv-x="139" 
d="M50 1v542h39v-542h-39zM146 589l-152 51v39l152 -50v-40z" />
    <glyph glyph-name="idieresis" unicode="&#xef;" horiz-adv-x="139" 
d="M50 1v542h39v-542h-39zM52 630v-7c0 -13 -10 -22 -23 -22h-6c-13 0 -23 9 -23 22v7c0 13 10 22 23 22h6c13 0 23 -9 23 -22zM140 630v-7c0 -13 -10 -22 -23 -22h-6c-13 0 -23 9 -23 22v7c0 13 10 22 23 22h6c13 0 23 -9 23 -22z" />
    <glyph glyph-name="ntilde" unicode="&#xf1;" horiz-adv-x="384" 
d="M326 414v-414h-39v414c0 49 -41 90 -90 90h-6c-51 0 -92 -41 -92 -90v-414h-37v414c0 42 -6 87 -18 127h38c4 -13 7 -26 12 -43c23 27 58 45 97 45h6c71 0 129 -58 129 -129zM56 618v38c19 17 38 23 57 23c52 0 104 -45 156 -45c19 0 38 6 57 22v-38
c-19 -18 -38 -23 -57 -23c-52 0 -104 45 -156 45c-19 0 -38 -6 -57 -22z" />
    <glyph glyph-name="oacute" unicode="&#xf3;" 
d="M284 128v286c0 49 -40 90 -90 90h-7c-49 0 -90 -41 -90 -90v-286c0 -50 41 -90 90 -90h7c50 0 90 40 90 90zM187 543h7c71 0 128 -58 128 -129v-286c0 -71 -57 -129 -128 -129h-7c-71 0 -129 58 -129 129v286c0 71 58 129 129 129zM267 671v-39l-152 -51v40z" />
    <glyph glyph-name="ograve" unicode="&#xf2;" 
d="M284 128v286c0 49 -40 90 -90 90h-7c-49 0 -90 -41 -90 -90v-286c0 -50 41 -90 90 -90h7c50 0 90 40 90 90zM187 543h7c71 0 128 -58 128 -129v-286c0 -71 -57 -129 -128 -129h-7c-71 0 -129 58 -129 129v286c0 71 58 129 129 129zM267 621v-40l-152 51v39z" />
    <glyph glyph-name="odieresis" unicode="&#xf6;" 
d="M194 543c71 0 128 -58 128 -129v-286c0 -71 -57 -129 -128 -129h-7c-71 0 -129 58 -129 129v286c0 71 58 129 129 129h7zM284 128v286c0 49 -40 90 -90 90h-7c-49 0 -90 -41 -90 -90v-286c0 -50 41 -90 90 -90h7c50 0 90 40 90 90zM160 617v-7c0 -13 -10 -22 -23 -22h-6
c-13 0 -23 9 -23 22v7c0 13 10 22 23 22h6c13 0 23 -9 23 -22zM272 617v-7c0 -13 -10 -22 -23 -22h-6c-13 0 -23 9 -23 22v7c0 13 10 22 23 22h6c13 0 23 -9 23 -22z" />
    <glyph glyph-name="otilde" unicode="&#xf5;" horiz-adv-x="386" 
d="M197 543c71 0 128 -58 128 -129v-286c0 -71 -57 -129 -128 -129h-7c-71 0 -129 58 -129 129v286c0 71 58 129 129 129h7zM287 128v286c0 49 -40 90 -90 90h-7c-49 0 -90 -41 -90 -90v-286c0 -50 41 -90 90 -90h7c50 0 90 40 90 90zM58 612v38c19 17 38 23 57 23
c52 0 104 -45 156 -45c19 0 38 6 57 22v-38c-19 -18 -38 -23 -57 -23c-52 0 -104 45 -156 45c-19 0 -38 -6 -57 -22z" />
    <glyph glyph-name="uacute" unicode="&#xfa;" horiz-adv-x="385" 
d="M341 0h-39c-3 13 -7 26 -10 44c-23 -28 -58 -45 -97 -45h-7c-72 0 -130 58 -130 129v413h40v-413c0 -50 40 -90 90 -90h7c49 0 90 40 90 90v413h39v-413c0 -42 4 -83 17 -128zM272 641l-152 -51v40l152 50v-39z" />
    <glyph glyph-name="ugrave" unicode="&#xf9;" horiz-adv-x="385" 
d="M341 0h-39c-3 13 -7 26 -10 44c-23 -28 -58 -45 -97 -45h-7c-72 0 -130 58 -130 129v413h40v-413c0 -50 40 -90 90 -90h7c49 0 90 40 90 90v413h39v-413c0 -42 4 -83 17 -128zM272 583l-152 51v39l152 -50v-40z" />
    <glyph glyph-name="udieresis" unicode="&#xfc;" horiz-adv-x="385" 
d="M341 0h-39c-3 13 -7 26 -10 44c-23 -28 -58 -45 -97 -45h-7c-72 0 -130 58 -130 129v413h40v-413c0 -50 40 -90 90 -90h7c49 0 90 40 90 90v413h39v-413c0 -42 4 -83 17 -128zM158 641v-7c0 -13 -10 -22 -23 -22h-6c-13 0 -23 9 -23 22v7c0 13 10 22 23 22h6
c13 0 23 -9 23 -22zM270 641v-7c0 -13 -10 -22 -23 -22h-6c-13 0 -23 9 -23 22v7c0 13 10 22 23 22h6c13 0 23 -9 23 -22z" />
    <glyph glyph-name="OE" unicode="&#x152;" horiz-adv-x="590" 
d="M193 707h-6c-51 0 -91 -41 -91 -90v-486c0 -51 40 -92 91 -92h6c47 0 86 37 90 83v503c-4 45 -43 82 -90 82zM283 710v36h249v-39h-212v-69c2 -7 2 -14 2 -21v-225h158v-38h-158v-225c0 -7 0 -14 -2 -21v-69h212v-39h-249v36c-24 -22 -55 -36 -90 -36h-6
c-71 0 -129 58 -129 129v488c0 71 58 129 129 129h6c35 0 66 -14 90 -36z" />
    <glyph glyph-name="oe" unicode="&#x153;" horiz-adv-x="578" 
d="M270 128v286c0 49 -40 90 -90 90h-7c-49 0 -90 -41 -90 -90v-286c0 -50 41 -90 90 -90h7c50 0 90 40 90 90zM534 261h-226v-132c0 -51 41 -91 92 -91h5c50 0 90 40 90 91v34h39v-34c0 -71 -58 -129 -129 -129h-5c-47 0 -87 24 -110 61c-22 -37 -63 -62 -110 -62h-7
c-71 0 -129 58 -129 129v286c0 71 58 129 129 129h7c47 0 87 -25 109 -62c23 37 64 62 111 62h5c71 0 129 -58 129 -129v-153zM405 505h-5c-51 0 -92 -33 -92 -91v-114h187v114c0 50 -40 91 -90 91z" />
    <glyph glyph-name="ydieresis" unicode="&#xff;" horiz-adv-x="363" 
d="M287 543h40l-125 -618c-19 -82 -82 -125 -153 -128v38c53 0 102 42 114 90l5 30l-132 588h39l112 -495zM151 619v-7c0 -13 -10 -22 -23 -22h-6c-13 0 -23 9 -23 22v7c0 13 10 22 23 22h6c13 0 23 -9 23 -22zM263 619v-7c0 -13 -10 -22 -23 -22h-6c-13 0 -23 9 -23 22v7
c0 13 10 22 23 22h6c13 0 23 -9 23 -22z" />
    <glyph glyph-name="Ydieresis" unicode="&#x178;" horiz-adv-x="394" 
d="M357 746l-140 -489v-257h-38v257l-143 489h42l119 -417l119 417h41zM167 813v-7c0 -13 -10 -22 -23 -22h-6c-13 0 -23 9 -23 22v7c0 13 10 22 23 22h6c13 0 23 -9 23 -22zM279 813v-7c0 -13 -10 -22 -23 -22h-6c-13 0 -23 9 -23 22v7c0 13 10 22 23 22h6
c13 0 23 -9 23 -22z" />
    <glyph glyph-name="guilsinglright" unicode="&#x203a;" horiz-adv-x="223" 
d="M165 305l-68 -123h-39l68 123l-68 124h39z" />
    <glyph glyph-name="guilsinglleft" unicode="&#x2039;" horiz-adv-x="223" 
d="M58 306l68 123h39l-68 -123l68 -124h-39z" />
    <glyph glyph-name="guillemotleft" unicode="&#xab;" horiz-adv-x="350" 
d="M58 306l68 123h39l-68 -123l68 -124h-39zM185 306l68 123h39l-68 -123l68 -124h-39z" />
    <glyph glyph-name="guillemotright" unicode="&#xbb;" horiz-adv-x="350" 
d="M224 429l68 -123l-68 -124h-39l68 124l-68 123h39zM97 429l68 -123l-68 -124h-39l68 124l-68 123h39z" />
    <glyph glyph-name="Agrave" unicode="&#xc0;" horiz-adv-x="416" 
d="M208 714l-73 -469h147zM358 0h-37l-34 206h-158l-32 -206h-39l118 746h66zM285 823v-40l-152 51v39z" />
    <glyph glyph-name="Atilde" unicode="&#xc3;" horiz-adv-x="416" 
d="M208 714l-73 -469h147zM358 0h-37l-34 206h-158l-32 -206h-39l118 746h66zM73 814v38c19 17 38 23 57 23c52 0 104 -45 156 -45c19 0 38 6 57 22v-38c-19 -18 -38 -23 -57 -23c-52 0 -104 45 -156 45c-19 0 -38 -6 -57 -22z" />
    <glyph glyph-name="Otilde" unicode="&#xd5;" 
d="M193 746c71 0 129 -58 129 -129v-488c0 -71 -58 -129 -129 -129h-6c-71 0 -129 58 -129 129v488c0 71 58 129 129 129h6zM283 131v486c0 49 -41 90 -90 90h-6c-51 0 -91 -41 -91 -90v-486c0 -51 40 -92 91 -92h6c49 0 90 41 90 92zM55 822v38c19 17 38 23 57 23
c52 0 104 -45 156 -45c19 0 38 6 57 22v-38c-19 -18 -38 -23 -57 -23c-52 0 -104 45 -156 45c-19 0 -38 -6 -57 -22z" />
    <glyph glyph-name="Aacute" unicode="&#xc1;" horiz-adv-x="416" 
d="M208 714l-73 -469h147zM358 0h-37l-34 206h-158l-32 -206h-39l118 746h66zM284 869v-39l-152 -51v40z" />
    <glyph glyph-name="Edieresis" unicode="&#xcb;" horiz-adv-x="366" 
d="M308 707h-212v-315h159v-38h-159v-315h212v-39h-250v746h250v-39zM153 825v-7c0 -13 -10 -22 -23 -22h-6c-13 0 -23 9 -23 22v7c0 13 10 22 23 22h6c13 0 23 -9 23 -22zM265 825v-7c0 -13 -10 -22 -23 -22h-6c-13 0 -23 9 -23 22v7c0 13 10 22 23 22h6c13 0 23 -9 23 -22
z" />
    <glyph glyph-name="Egrave" unicode="&#xc8;" horiz-adv-x="366" 
d="M308 707h-212v-315h159v-38h-159v-315h212v-39h-250v746h250v-39zM259 787l-152 51v39l152 -50v-40z" />
    <glyph glyph-name="acircumflex" unicode="&#xe2;" horiz-adv-x="384" 
d="M186 263c-48 0 -91 -29 -90 -76v-58c0 -50 41 -91 91 -91c49 0 96 41 96 91v156c-21 -18 -50 -22 -84 -22h-13zM187 0c-72 0 -129 57 -129 129v58c0 74 62 114 128 114c40 0 97 4 97 57v57c0 49 -41 90 -90 90c-51 0 -97 -41 -97 -90v-59h-38v59c0 71 64 129 135 129
s129 -58 129 -129v-286c1 -41 4 -82 18 -130h-39c-4 14 -7 29 -10 46c-28 -32 -63 -45 -104 -45zM76 620l123 68l124 -68v-39l-124 68l-123 -68v39z" />
    <glyph glyph-name="atilde" unicode="&#xe3;" horiz-adv-x="384" 
d="M58 614v38c19 17 38 23 57 23c52 0 104 -45 156 -45c19 0 38 6 57 22v-38c-19 -18 -38 -23 -57 -23c-52 0 -104 45 -156 45c-19 0 -38 -6 -57 -22zM187 0c-72 0 -129 57 -129 129v58c0 77 64 114 134 114c52 0 91 14 91 57v57c0 49 -41 90 -90 90c-51 0 -97 -41 -97 -90
v-59h-38v59c0 71 64 129 135 129s129 -58 129 -129v-286c1 -41 4 -82 18 -130h-39c-4 14 -7 29 -10 46c-28 -32 -63 -45 -104 -45zM186 263c-48 0 -91 -29 -90 -76v-58c0 -50 41 -91 91 -91c49 0 96 41 96 91v156c-21 -18 -50 -22 -84 -22h-13z" />
    <glyph glyph-name="aring" unicode="&#xe5;" horiz-adv-x="384" 
d="M184 781h3c47 0 85 -38 85 -85v-26c0 -47 -38 -84 -85 -84h-3c-49 0 -86 37 -86 84v26c0 47 37 85 86 85zM234 674v19c0 28 -21 50 -47 50h-3c-28 0 -49 -22 -49 -50v-19c0 -28 21 -49 49 -49h3c26 0 47 21 47 49zM187 0c-72 0 -129 57 -129 129v58c0 77 64 114 134 114
c52 0 91 14 91 57v57c0 49 -41 90 -90 90c-51 0 -97 -41 -97 -90v-59h-38v59c0 71 64 129 135 129s129 -58 129 -129v-286c1 -41 4 -82 18 -130h-39c-4 14 -7 29 -10 46c-28 -32 -63 -45 -104 -45zM186 263c-48 0 -91 -29 -90 -76v-58c0 -50 41 -91 91 -91c49 0 96 41 96 91
v156c-21 -18 -50 -22 -84 -22h-13z" />
    <glyph glyph-name="ecircumflex" unicode="&#xea;" 
d="M192 505h-5c-51 0 -92 -33 -92 -91v-114h187v114c0 50 -40 91 -90 91zM322 261h-227v-132c0 -51 41 -91 92 -91h5c50 0 90 40 90 91v34h40v-34c0 -71 -58 -129 -130 -129h-5c-71 0 -129 58 -129 129v285c0 71 58 129 129 129h5c72 0 130 -58 130 -129v-153zM67 612
l123 68l124 -68v-39l-124 68l-123 -68v39z" />
    <glyph glyph-name="icircumflex" unicode="&#xee;" horiz-adv-x="139" 
d="M50 1v542h39v-542h-39zM69 695l124 -68v-39l-124 68l-123 -68v39z" />
    <glyph glyph-name="ocircumflex" unicode="&#xf4;" 
d="M284 128v286c0 49 -40 90 -90 90h-7c-49 0 -90 -41 -90 -90v-286c0 -50 41 -90 90 -90h7c50 0 90 40 90 90zM187 543h7c71 0 128 -58 128 -129v-286c0 -71 -57 -129 -128 -129h-7c-71 0 -129 58 -129 129v286c0 71 58 129 129 129zM67 605l123 68l124 -68v-39l-124 68
l-123 -68v39z" />
    <glyph glyph-name="ucircumflex" unicode="&#xfb;" horiz-adv-x="385" 
d="M341 0h-39c-3 13 -7 26 -10 44c-23 -28 -58 -45 -97 -45h-7c-72 0 -130 58 -130 129v413h40v-413c0 -50 40 -90 90 -90h7c49 0 90 40 90 90v413h39v-413c0 -42 4 -83 17 -128zM191 695l124 -68v-39l-124 68l-123 -68v39z" />
    <glyph glyph-name="Oslash" unicode="&#xd8;" 
d="M96 617v-443l177 483c-14 29 -45 50 -80 50h-6c-51 0 -91 -41 -91 -90zM283 131v438l-177 -480c15 -30 45 -50 81 -50h6c49 0 90 41 90 92zM89 45l-16 -45h-41l33 89c-5 12 -7 26 -7 40v488c0 71 58 129 129 129h6c39 0 73 -17 97 -44l16 44h42l-32 -89
c4 -12 6 -26 6 -40v-488c0 -71 -58 -129 -129 -129h-6c-39 0 -74 18 -98 45z" />
    <glyph glyph-name="oslash" unicode="&#xf8;" horiz-adv-x="352" 
d="M83 414v-285l170 337c-16 23 -43 38 -73 38h-7c-49 0 -90 -41 -90 -90zM270 128v289l-172 -339c16 -24 44 -40 75 -40h7c50 0 90 40 90 90zM272 504l20 39h42l-38 -75c8 -16 12 -35 12 -54v-286c0 -71 -56 -129 -128 -129h-7c-37 0 -71 15 -94 41l-20 -40h-41l37 75
c-7 16 -11 34 -11 53v286c0 71 58 129 129 129h7c37 0 69 -15 92 -39z" />
    <glyph glyph-name="Acircumflex" unicode="&#xc2;" horiz-adv-x="416" 
d="M208 714l-73 -469h147zM358 0h-37l-34 206h-158l-32 -206h-39l118 746h66zM85 805l123 68l124 -68v-39l-124 68l-123 -68v39z" />
    <glyph glyph-name="Ecircumflex" unicode="&#xca;" horiz-adv-x="366" 
d="M308 707h-212v-315h159v-38h-159v-315h212v-39h-250v746h250v-39zM182 901l124 -68v-39l-124 68l-123 -68v39z" />
    <glyph glyph-name="Iacute" unicode="&#xcd;" horiz-adv-x="155" 
d="M97 745v-745h-39v745h39zM185 827l-152 -51v40l152 50v-39z" />
    <glyph glyph-name="Icircumflex" unicode="&#xce;" horiz-adv-x="155" 
d="M97 745v-745h-39v745h39zM77 882l124 -68v-39l-124 68l-123 -68v39z" />
    <glyph glyph-name="Idieresis" unicode="&#xcf;" horiz-adv-x="155" 
d="M97 745v-745h-39v745h39zM47 812v-7c0 -13 -10 -22 -23 -22h-6c-13 0 -23 9 -23 22v7c0 13 10 22 23 22h6c13 0 23 -9 23 -22zM159 812v-7c0 -13 -10 -22 -23 -22h-6c-13 0 -23 9 -23 22v7c0 13 10 22 23 22h6c13 0 23 -9 23 -22z" />
    <glyph glyph-name="Igrave" unicode="&#xcc;" horiz-adv-x="155" 
d="M97 745v-745h-39v745h39zM154 772l-152 51v39l152 -50v-40z" />
    <glyph glyph-name="Oacute" unicode="&#xd3;" 
d="M283 131v486c0 49 -41 90 -90 90h-6c-51 0 -91 -41 -91 -90v-486c0 -51 40 -92 91 -92h6c49 0 90 41 90 92zM187 746h6c71 0 129 -58 129 -129v-488c0 -71 -58 -129 -129 -129h-6c-71 0 -129 58 -129 129v488c0 71 58 129 129 129zM266 869v-39l-152 -51v40z" />
    <glyph glyph-name="Ocircumflex" unicode="&#xd4;" 
d="M283 131v486c0 49 -41 90 -90 90h-6c-51 0 -91 -41 -91 -90v-486c0 -51 40 -92 91 -92h6c49 0 90 41 90 92zM187 746h6c71 0 129 -58 129 -129v-488c0 -71 -58 -129 -129 -129h-6c-71 0 -129 58 -129 129v488c0 71 58 129 129 129zM67 801l123 68l124 -68v-39l-124 68
l-123 -68v39z" />
    <glyph glyph-name="Ograve" unicode="&#xd2;" 
d="M283 131v486c0 49 -41 90 -90 90h-6c-51 0 -91 -41 -91 -90v-486c0 -51 40 -92 91 -92h6c49 0 90 41 90 92zM187 746h6c71 0 129 -58 129 -129v-488c0 -71 -58 -129 -129 -129h-6c-71 0 -129 58 -129 129v488c0 71 58 129 129 129zM266 827v-40l-152 51v39z" />
    <glyph glyph-name="Uacute" unicode="&#xda;" horiz-adv-x="382" 
d="M284 746h40v-617c0 -71 -58 -129 -130 -129h-7c-71 0 -129 58 -129 129v617h39v-617c0 -49 41 -90 90 -90h7c50 0 90 41 90 90v617zM267 834l-152 -51v40l152 50v-39z" />
    <glyph glyph-name="Ucircumflex" unicode="&#xdb;" horiz-adv-x="382" 
d="M284 746h40v-617c0 -71 -58 -129 -130 -129h-7c-71 0 -129 58 -129 129v617h39v-617c0 -49 41 -90 90 -90h7c50 0 90 41 90 90v617zM190 897l124 -68v-39l-124 68l-123 -68v39z" />
    <glyph glyph-name="Ugrave" unicode="&#xd9;" horiz-adv-x="382" 
d="M284 746h40v-617c0 -71 -58 -129 -130 -129h-7c-71 0 -129 58 -129 129v617h39v-617c0 -49 41 -90 90 -90h7c50 0 90 41 90 90v617zM267 781l-152 51v39l152 -50v-40z" />
    <glyph glyph-name="Yacute" unicode="&#xdd;" horiz-adv-x="394" 
d="M357 746l-140 -489v-257h-38v257l-143 489h42l119 -417l119 417h41zM273 816l-152 -51v40l152 50v-39z" />
    <glyph glyph-name="yacute" unicode="&#xfd;" horiz-adv-x="363" 
d="M287 543h40l-125 -618c-19 -82 -82 -125 -153 -128v38c53 0 102 42 114 90l5 30l-132 588h39l112 -495zM258 628l-152 -51v40l152 50v-39z" />
    <glyph glyph-name="Scaron" unicode="&#x160;" 
d="M58 129v58h38v-58c0 -49 40 -90 91 -90h6c49 0 90 41 90 90v134c0 50 -41 91 -90 91h-7c-71 0 -128 58 -128 129v134c0 71 58 129 129 129h6c71 0 129 -58 129 -129v-58h-39v58c0 49 -41 90 -90 90h-6c-51 0 -91 -41 -91 -90v-134c0 -51 40 -91 91 -91h6
c71 0 129 -58 129 -129v-134c0 -71 -58 -129 -129 -129h-6c-71 0 -129 58 -129 129zM191 792l-124 68v40l124 -69l123 69v-40z" />
    <glyph glyph-name="scaron" unicode="&#x161;" horiz-adv-x="351" 
d="M308 386h-39v27c0 50 -40 90 -90 90h-6c-50 0 -91 -40 -91 -90v-26c0 -58 31 -96 80 -96h29c70 -1 117 -59 117 -129v-32c0 -72 -58 -130 -129 -130h-6c-72 0 -129 58 -129 130v37h38v-37c0 -50 41 -91 91 -91h6c50 0 90 41 90 91v32c0 50 -30 90 -80 90h-28
c-71 1 -117 58 -117 129v32c0 71 57 129 129 129h6c71 0 129 -58 129 -129v-27zM176 581l-124 68v40l124 -69l123 69v-40z" />
    <glyph glyph-name="Zcaron" unicode="&#x17d;" horiz-adv-x="379" 
d="M321 746l-209 -707h202v-39h-256l209 707h-204v39h258zM190 792l-124 68v40l124 -69l123 69v-40z" />
    <glyph glyph-name="zcaron" unicode="&#x17e;" horiz-adv-x="361" 
d="M318 543l-215 -504h202v-39h-261l214 504h-204v39h264zM181 592l-124 68v40l124 -69l123 69v-40z" />
    <glyph glyph-name="Eth" unicode="&#xd0;" horiz-adv-x="415" 
d="M91 0v354h-47v38h47v354h136c72 0 130 -58 130 -129v-488c0 -71 -58 -129 -130 -129h-136zM132 354v-315h95c50 0 90 41 90 90v488c0 49 -40 90 -90 90h-95v-315h107v-38h-107z" />
    <glyph glyph-name="eth" unicode="&#xf0;" horiz-adv-x="365" 
d="M170 39h6c51 0 90 41 90 90v238c0 50 -39 90 -90 90h-6c-51 0 -90 -40 -90 -90v-238c0 -49 39 -90 90 -90zM247 572h-99v38h88c-15 42 -50 80 -111 100v39c76 -13 130 -71 153 -139h44v-38h-34c8 -36 18 -93 19 -157v-286c0 -71 -58 -129 -130 -129h-7
c-71 0 -129 58 -129 129v238c0 72 58 130 129 130h7c35 0 64 -10 87 -33c0 14 -8 70 -17 108z" />
    <glyph glyph-name="Lslash" unicode="&#x141;" horiz-adv-x="366" 
d="M72 391v355h39v-342l85 28v-38l-85 -28v-327h211v-39h-250v353l-50 -16v38z" />
    <glyph glyph-name="lslash" unicode="&#x142;" horiz-adv-x="218" 
d="M196 432v-38l-69 -23v-226c0 -45 3 -91 18 -145h-38c-10 30 -17 67 -17 145v214l-68 -22v38l68 22v349h37v-337z" />
    <glyph glyph-name="paragraph" unicode="&#xb6;" horiz-adv-x="504" 
d="M97 615v-132c0 -49 41 -90 90 -90h96v312h-96c-49 0 -90 -40 -90 -90zM187 744h137v-744h-40v356h-97c-71 0 -129 56 -129 127v132c0 71 58 129 129 129zM408 0v746h38v-746h-38z" />
    <glyph glyph-name="yen" unicode="&#xa5;" horiz-adv-x="394" 
d="M179 0v133h-122v38h122v78h-122v38h113l-134 459h42l119 -417l119 417h41l-131 -459h111v-38h-120v-78h120v-38h-120v-133h-38z" />
    <glyph glyph-name="Amacron" unicode="&#x100;" horiz-adv-x="416" 
d="M208 714l-73 -469h147zM358 0h-37l-34 206h-158l-32 -206h-39l118 746h66zM342 830v-37h-268v37h268z" />
    <glyph glyph-name="amacron" unicode="&#x101;" horiz-adv-x="384" 
d="M326 602h-268v37h268v-37zM187 0c-72 0 -129 57 -129 129v58c0 77 64 114 134 114c52 0 91 14 91 57v57c0 49 -41 90 -90 90c-51 0 -97 -41 -97 -90v-59h-38v59c0 71 64 129 135 129s129 -58 129 -129v-286c1 -41 4 -82 18 -130h-39c-4 14 -7 29 -10 46
c-28 -32 -63 -45 -104 -45zM186 263c-48 0 -91 -29 -90 -76v-58c0 -50 41 -91 91 -91c49 0 96 41 96 91v156c-21 -18 -50 -22 -84 -22h-13z" />
    <glyph glyph-name="Emacron" unicode="&#x112;" horiz-adv-x="366" 
d="M308 707h-212v-315h159v-38h-159v-315h212v-39h-250v746h250v-39zM317 814h-268v37h268v-37z" />
    <glyph glyph-name="emacron" unicode="&#x113;" horiz-adv-x="384" 
d="M195 505h-5c-51 0 -92 -33 -92 -91v-114h187v114c0 50 -40 91 -90 91zM325 261h-227v-132c0 -51 41 -91 92 -91h5c50 0 90 40 90 91v34h40v-34c0 -71 -58 -129 -130 -129h-5c-71 0 -129 58 -129 129v285c0 71 58 129 129 129h5c72 0 130 -58 130 -129v-153zM326 638v-37
h-268v37h268z" />
    <glyph glyph-name="Imacron" unicode="&#x12a;" horiz-adv-x="155" 
d="M97 745v-745h-39v745h39zM211 798h-268v37h268v-37z" />
    <glyph glyph-name="imacron" unicode="&#x12b;" horiz-adv-x="139" 
d="M50 1v542h39v-542h-39zM160 607h-181v38h181v-38z" />
    <glyph glyph-name="Omacron" unicode="&#x14c;" 
d="M283 131v486c0 49 -41 90 -90 90h-6c-51 0 -91 -41 -91 -90v-486c0 -51 40 -92 91 -92h6c49 0 90 41 90 92zM187 746h6c71 0 129 -58 129 -129v-488c0 -71 -58 -129 -129 -129h-6c-71 0 -129 58 -129 129v488c0 71 58 129 129 129zM324 837v-37h-268v37h268z" />
    <glyph glyph-name="omacron" unicode="&#x14d;" horiz-adv-x="384" 
d="M286 128v286c0 49 -40 90 -90 90h-7c-49 0 -90 -41 -90 -90v-286c0 -50 41 -90 90 -90h7c50 0 90 40 90 90zM189 543h7c71 0 128 -58 128 -129v-286c0 -71 -57 -129 -128 -129h-7c-71 0 -129 58 -129 129v286c0 71 58 129 129 129zM326 632v-37h-268v37h268z" />
    <glyph glyph-name="Umacron" unicode="&#x16a;" horiz-adv-x="382" 
d="M284 746h40v-617c0 -71 -58 -129 -130 -129h-7c-71 0 -129 58 -129 129v617h39v-617c0 -49 41 -90 90 -90h7c50 0 90 41 90 90v617zM325 805h-268v37h268v-37z" />
    <glyph glyph-name="umacron" unicode="&#x16b;" horiz-adv-x="385" 
d="M341 0h-39c-3 13 -7 26 -10 44c-23 -28 -58 -45 -97 -45h-7c-72 0 -130 58 -130 129v413h40v-413c0 -50 40 -90 90 -90h7c49 0 90 40 90 90v413h39v-413c0 -42 4 -83 17 -128zM328 605h-268v37h268v-37z" />
    <glyph glyph-name="Aogonek" unicode="&#x104;" horiz-adv-x="416" 
d="M282 245l-74 469l-73 -469h147zM129 206l-32 -206h-39l118 746h66l116 -746h-15c-13 -15 -31 -43 -31 -63c0 -30 54 -31 74 -31v-37c-46 0 -111 10 -111 68c0 38 31 78 41 89l-29 180h-158z" />
    <glyph glyph-name="aogonek" unicode="&#x105;" horiz-adv-x="419" 
d="M199 263h-12c-48 0 -92 -29 -91 -76l1 -58c0 -50 40 -91 90 -91s97 41 97 91l-1 156c-21 -18 -50 -22 -84 -22zM322 415v-286c1 -41 5 -82 18 -130h-8c-13 -15 -31 -42 -31 -62c0 -30 54 -31 74 -31v-37c-45 0 -111 10 -111 68c0 30 20 62 33 79c-2 9 -4 18 -6 29
c-27 -32 -62 -45 -104 -45c-71 0 -129 57 -129 129v58c0 74 62 114 129 114c40 0 96 5 96 57v57c0 49 -40 90 -90 90c-51 0 -97 -41 -97 -90l1 -59h-39v59c0 71 64 129 135 129s129 -58 129 -129z" />
    <glyph glyph-name="Eogonek" unicode="&#x118;" horiz-adv-x="366" 
d="M255 392v-38h-159v-315h212v-39c-13 -14 -35 -45 -35 -66c0 -30 54 -31 74 -31v-37c-45 0 -111 10 -111 68c0 24 12 48 24 66h-202v746h250v-39h-212v-315h159z" />
    <glyph glyph-name="eogonek" unicode="&#x119;" horiz-adv-x="389" 
d="M193 505h-6c-51 0 -91 -33 -91 -91v-114h187v114c0 50 -41 91 -90 91zM322 414v-153h-226v-132c0 -51 40 -91 91 -91h6c49 0 90 40 90 91v34h39v-34c0 -32 -12 -61 -31 -84c-13 -14 -34 -45 -34 -67c0 -30 54 -31 74 -31v-37c-46 0 -112 10 -112 68c0 8 2 17 4 26
c-9 -3 -20 -4 -30 -4h-6c-71 0 -129 58 -129 129v285c0 71 58 129 129 129h6c71 0 129 -58 129 -129z" />
    </font>
</defs>
</svg>
